<svg xmlns="http://www.w3.org/2000/svg"><symbol id="arrow"><path d="M12.304 29.483a1.51 1.51 0 0 0 1.115.517c.398 0 .812-.178 1.115-.517a1.901 1.901 0 0 0 0-2.493L3.812 15.002 14.534 3.015a1.901 1.901 0 0 0 0-2.494c-.621-.695-1.61-.695-2.23 0L.466 13.755a1.901 1.901 0 0 0 0 2.494l11.838 13.234z"/></symbol><symbol id="stats"><path d="M7.143 8.857v5.714H4.286V8.857h2.857zm4.286-5.714V14.57H8.57V3.143h2.858zM22.857 16v1.429H0V.286h1.429V16h21.428zM15.714 6v8.571h-2.857V6h2.857zM20 1.714v12.857h-2.857V1.714H20z" fill-rule="evenodd"/></symbol></svg>