<svg width="103" height="22" xmlns="http://www.w3.org/2000/svg"><g fill="#B3DC20" fill-rule="nonzero"><path d="M8.368.232c1.159 0 2.338.097 3.497.29 1.16.194 2.223.62 3.15 1.258.947.639 1.7 1.548 2.3 2.747.599 1.2.889 2.767.889 4.74v11.88a15.27 15.27 0 0 1-1.875.252 21.51 21.51 0 0 1-1.468.058c-.445 0-.947-.02-1.508-.058-.56-.039-1.179-.136-1.874-.252V9.984c0-1.413-.27-2.419-.793-3.019-.521-.6-1.333-.91-2.415-.91-.29 0-.6.02-.928.078-.328.058-.54.116-.618.155v14.879a15.27 15.27 0 0 1-1.875.251 21.51 21.51 0 0 1-1.468.058c-.445 0-.947-.019-1.508-.058-.56-.038-1.178-.135-1.874-.251V1.625c.928-.31 2.048-.638 3.382-.928C4.715.387 6.377.232 8.368.232zM28.214 13.04c.29 1.084.792 1.858 1.527 2.303.734.445 1.68.677 2.879.677.773 0 1.623-.097 2.59-.27a16.752 16.752 0 0 0 2.82-.833c.368.697.696 1.51.967 2.458.27.948.425 1.954.464 2.98-2.358.87-4.773 1.315-7.228 1.315-1.913 0-3.536-.271-4.908-.793-1.372-.523-2.474-1.258-3.343-2.206-.87-.948-1.488-2.07-1.913-3.367-.406-1.296-.619-2.708-.619-4.256 0-1.51.213-2.922.638-4.257.425-1.335 1.063-2.476 1.913-3.463.85-.987 1.913-1.76 3.17-2.322 1.275-.561 2.743-.851 4.444-.851 1.41 0 2.647.232 3.749.716a8.35 8.35 0 0 1 2.802 1.973c.773.832 1.353 1.838 1.759 3.018.405 1.18.618 2.458.618 3.831 0 .716-.039 1.355-.097 1.935-.058.561-.135 1.045-.174 1.413H28.214zm3.188-7.835c-.85 0-1.584.27-2.183.793-.619.522-.966 1.354-1.063 2.457h6.358c-.058-.929-.329-1.703-.85-2.322-.542-.619-1.295-.928-2.262-.928zM73.453 15.595h7.498c.135.522.212 1.025.25 1.47a15.315 15.315 0 0 1 0 2.65c-.038.465-.134.968-.25 1.49H68.023c-.715 0-1.276-.58-1.276-1.277l.039-19.27c.58-.136 1.16-.232 1.72-.271.56-.058 1.12-.077 1.642-.077.503 0 1.044.019 1.623.077a15.6 15.6 0 0 1 1.701.27l-.02 14.938zM62.67 6.191c-1.063-2.147-2.957-2.07-4.136-1.702-1.507.464-2.473 1.857-2.126 3.715.155.773.329 1.857.329 2.824 0 1.664-.29 2.96-.85 3.85-.56.91-1.43 1.355-2.61 1.355-1.159 0-2.028-.445-2.589-1.354-.56-.91-.83-2.187-.83-3.85 0-1.703.27-2.864.83-3.754.503-.813 1.237-1.316 2.242-1.393 1.971-.155 2.705-1.51 2.705-3.154 0-1.045-.85-2.535-2.724-2.573-1.662-.058-2.764.29-4.04.812-1.275.523-2.337 1.258-3.188 2.206-.87.948-1.507 2.109-1.951 3.444-.445 1.335-.658 2.825-.658 4.43 0 1.587.213 3.038.658 4.354.444 1.316 1.082 2.438 1.951 3.386.87.948 1.933 1.664 3.189 2.167 1.275.503 2.744.754 4.406.754 1.7 0 3.17-.251 4.445-.754 1.275-.503 2.338-1.219 3.188-2.167.85-.948 1.507-2.07 1.952-3.386.444-1.316.657-2.767.657-4.353 0-1.645-.329-3.792-.85-4.857zM102.053 6.191c-1.063-2.147-2.957-2.07-4.135-1.702-1.508.464-2.474 1.857-2.126 3.715.155.773.328 1.857.328 2.824 0 1.664-.29 2.96-.85 3.85-.56.91-1.43 1.355-2.609 1.355-1.16 0-2.029-.445-2.59-1.354-.56-.91-.83-2.187-.83-3.85 0-1.703.27-2.864.83-3.754.503-.813 1.238-1.316 2.243-1.393 1.97-.155 2.705-1.51 2.705-3.154 0-1.045-.85-2.535-2.725-2.573-1.662-.058-2.763.29-4.039.812-1.275.523-2.338 1.258-3.188 2.206-.87.948-1.508 2.109-1.952 3.444-.444 1.335-.657 2.825-.657 4.43 0 1.587.213 3.038.657 4.354.444 1.316 1.082 2.438 1.952 3.386.87.948 1.932 1.664 3.188 2.167 1.276.503 2.744.754 4.406.754 1.7 0 3.17-.251 4.445-.754 1.275-.503 2.338-1.219 3.189-2.167.85-.948 1.507-2.07 1.951-3.386.445-1.316.657-2.767.657-4.353.02-1.645-.309-3.792-.85-4.857z"/></g></svg>